<?xml version="1.0" encoding="UTF-8" standalone="no"?>
<svg width="609px" height="121px" viewBox="0 0 609 121" version="1.1" xmlns="http://www.w3.org/2000/svg" xmlns:xlink="http://www.w3.org/1999/xlink">
    <!-- Generator: Sketch 41 (35326) - http://www.bohemiancoding.com/sketch -->
    <title>Artboard</title>
    <desc>Created with Sketch.</desc>
    <defs></defs>
    <g id="Page-1" stroke="none" stroke-width="1" fill="none" fill-rule="evenodd">
        <g id="Artboard" fill="#07D187">
            <g id="tea-cup" transform="translate(88.000000, 60.804688) rotate(-360.000000) translate(-88.000000, -60.804688) translate(13.000000, 11.000000)">
                <g id="Layer_1">
                    <path d="M129.454971,12.1089844 L125.519591,12.1089844 L125.519591,0.161425781 L24.1883041,0.161425781 L24.1883041,32.4005859 C24.1883041,42.1110352 26.9347953,51.5507812 32.1304094,59.6982422 C34.469883,63.3670898 37.2578947,66.694043 40.4087719,69.6225586 L55.7359649,69.6225586 L93.9716374,69.6225586 L109.29883,69.6225586 C112.449708,66.694043 115.237719,63.3665039 117.577485,59.6982422 C119.008187,57.4546875 120.245906,55.1106445 121.299123,52.6924805 L129.455263,52.6924805 C140.622807,52.6924805 149.707895,43.5893555 149.707895,32.400293 C149.707602,21.2118164 140.622222,12.1089844 129.454971,12.1089844 Z M129.454971,43.78125 L124.230117,43.78125 C125.078655,40.0725586 125.519298,36.2586914 125.519298,32.400293 L125.519298,21.0202148 L129.454678,21.0202148 C135.718129,21.0202148 140.81345,26.1254883 140.81345,32.400293 C140.813743,38.6759766 135.718129,43.78125 129.454971,43.78125 Z" id="Shape"></path>
                    <path d="M96.0444444,78.5337891 L53.6631579,78.5337891 L0,78.5337891 L0,80.0191406 C0,90.7321289 8.69853801,99.4482422 19.3903509,99.4482422 L130.316959,99.4482422 C141.008772,99.4482422 149.707602,90.7321289 149.707602,80.0191406 L149.707602,78.5337891 L96.0444444,78.5337891 Z" id="Shape"></path>
                </g>
            </g>
            <g id="tea-cup-copy" transform="translate(13.000000, 11.000000)">
                <g id="Layer_1">
                    <path d="M129.454971,12.1089844 L125.519591,12.1089844 L125.519591,0.161425781 L24.1883041,0.161425781 L24.1883041,32.4005859 C24.1883041,42.1110352 26.9347953,51.5507812 32.1304094,59.6982422 C34.469883,63.3670898 37.2578947,66.694043 40.4087719,69.6225586 L55.7359649,69.6225586 L93.9716374,69.6225586 L109.29883,69.6225586 C112.449708,66.694043 115.237719,63.3665039 117.577485,59.6982422 C119.008187,57.4546875 120.245906,55.1106445 121.299123,52.6924805 L129.455263,52.6924805 C140.622807,52.6924805 149.707895,43.5893555 149.707895,32.400293 C149.707602,21.2118164 140.622222,12.1089844 129.454971,12.1089844 Z M129.454971,43.78125 L124.230117,43.78125 C125.078655,40.0725586 125.519298,36.2586914 125.519298,32.400293 L125.519298,21.0202148 L129.454678,21.0202148 C135.718129,21.0202148 140.81345,26.1254883 140.81345,32.400293 C140.813743,38.6759766 135.718129,43.78125 129.454971,43.78125 Z" id="Shape"></path>
                    <path d="M96.0444444,78.5337891 L53.6631579,78.5337891 L0,78.5337891 L0,80.0191406 C0,90.7321289 8.69853801,99.4482422 19.3903509,99.4482422 L130.316959,99.4482422 C141.008772,99.4482422 149.707602,90.7321289 149.707602,80.0191406 L149.707602,78.5337891 L96.0444444,78.5337891 Z" id="Shape"></path>
                </g>
            </g>
            <text id="Tech-A-Coffee" font-family="OpenSans-Bold, Open Sans" font-size="61" font-weight="bold">
                <tspan x="189" y="78">Tech A Coffee</tspan>
            </text>
        </g>
    </g>
</svg>